


<svg aria-hidden="true"
      focusable="false"
      data-prefix="fas"
      data-icon="arrow-left"
      class="svg-inline--fa fa-arrow-left fa-w-14"
      role="img"
      xmlns="http://www.w3.org/2000/svg"
      viewBox="0 0 448 512" >
<g transform="translate(0.000000,2160.000000) scale(0.100000,-0.100000)"
fill="currentColor" stroke="none">
<path d="M6477 19774 c-4 -4 -58 -11 -119 -15 -163 -11 -426 -50 -523 -77 -22
-6 -78 -21 -125 -33 -180 -45 -218 -56 -288 -85 -18 -8 -37 -14 -42 -14 -19 0
-256 -98 -364 -150 -172 -83 -215 -137 -229 -290 -19 -191 -4 -664 23 -761 5
-20 10 -47 10 -60 0 -34 29 -195 46 -255 8 -28 14 -61 14 -74 0 -13 9 -51 20
-84 10 -34 37 -119 60 -191 42 -136 45 -145 105 -290 32 -77 168 -359 195
-405 5 -8 29 -50 54 -92 280 -476 714 -937 1171 -1244 132 -89 143 -94 230
-94 87 0 112 10 238 97 707 487 1235 1183 1508 1988 22 66 44 136 48 155 5 19
20 80 34 135 56 227 82 382 98 585 13 163 13 248 2 490 -10 207 -18 233 -89
303 -93 90 -680 318 -910 354 -21 3 -47 10 -56 14 -32 17 -334 64 -508 81
-133 12 -593 21 -603 12z m548 -273 c28 -5 100 -15 160 -21 215 -21 255 -28
445 -78 52 -13 104 -26 115 -29 208 -51 613 -212 635 -252 16 -31 13 -519 -4
-616 -8 -44 -19 -118 -25 -165 -6 -47 -22 -134 -36 -195 -14 -60 -32 -141 -40
-179 -9 -37 -18 -73 -22 -79 -3 -6 -10 -27 -14 -46 -13 -63 -98 -292 -151
-409 -15 -34 -28 -65 -28 -68 0 -3 -29 -62 -63 -132 -68 -136 -121 -224 -253
-422 -184 -277 -489 -601 -810 -860 -178 -144 -212 -151 -332 -65 -179 129
-292 226 -457 390 -286 287 -519 608 -686 945 -83 168 -172 378 -185 435 -4
17 -11 35 -16 41 -5 7 -15 34 -22 60 -8 27 -26 90 -41 139 -60 202 -95 393
-136 740 -5 50 -9 173 -7 275 4 227 5 229 137 286 145 63 414 158 491 174 19
4 78 19 130 33 178 46 328 73 495 89 61 5 142 14 180 18 92 11 476 5 540 -9z"/>
<path d="M6365 19231 c-11 -4 -58 -11 -104 -15 -46 -4 -102 -11 -125 -16 -22
-5 -77 -16 -121 -25 -133 -28 -233 -55 -370 -100 -233 -78 -256 -88 -295 -130
l-25 -27 1 -221 c0 -216 11 -321 46 -467 6 -25 16 -74 23 -110 15 -84 80 -307
113 -388 26 -65 78 -122 111 -122 21 0 57 14 174 69 45 21 93 42 106 46 14 4
39 15 55 25 l31 17 -3 104 c-7 197 20 315 104 459 97 165 261 295 434 343 118
33 140 37 229 37 196 0 404 -92 547 -242 45 -46 134 -176 134 -194 0 -6 9 -19
20 -29 15 -13 27 -16 52 -10 74 16 179 36 273 50 219 34 254 47 296 105 22 30
36 135 45 345 6 146 6 151 -17 184 -41 59 -60 69 -264 141 -160 56 -364 109
-506 131 -35 6 -109 17 -164 26 -110 17 -763 29 -800 14z"/>
<path d="M6675 18598 c-79 -11 -144 -32 -235 -75 -108 -51 -222 -167 -279
-284 -50 -103 -65 -173 -65 -294 0 -120 15 -191 64 -290 70 -145 224 -279 386
-336 128 -45 333 -35 450 21 22 11 44 20 49 20 19 0 173 128 212 176 43 54 90
139 119 216 26 69 31 282 9 355 -29 93 -80 193 -132 256 -44 54 -145 137 -201
167 -49 25 -140 51 -212 61 -41 5 -82 11 -90 13 -8 2 -42 -1 -75 -6z m105
-118 c11 -16 20 -33 20 -39 0 -19 49 -90 72 -105 25 -16 223 -26 245 -13 19
12 39 -2 72 -48 34 -48 38 -78 16 -121 -22 -43 -18 -86 10 -125 14 -19 37 -57
50 -85 22 -46 23 -57 15 -109 -5 -32 -14 -63 -19 -68 -6 -6 -48 -12 -93 -15
-46 -2 -93 -8 -105 -13 -25 -9 -64 -66 -101 -147 -24 -52 -24 -65 -6 -136 5
-23 2 -28 -37 -46 -70 -31 -80 -28 -172 65 -47 46 -96 87 -110 90 -24 6 -176
-38 -228 -66 -18 -9 -74 22 -93 54 -15 23 2 49 39 59 15 4 41 19 56 34 28 27
29 30 29 138 l0 110 -51 48 c-54 51 -142 98 -182 98 -31 0 -41 24 -23 58 7 15
16 39 19 53 4 15 15 36 25 48 l17 22 38 -25 c52 -35 89 -33 183 13 111 55 117
63 129 184 l10 101 55 11 c72 14 96 9 120 -25z"/>
<path d="M6805 18210 c-11 -5 -38 -9 -60 -9 -73 -2 -155 -68 -155 -125 0 -12
-7 -34 -15 -50 -20 -38 -19 -105 3 -138 10 -15 42 -52 71 -83 50 -52 55 -55
101 -55 75 0 181 28 208 55 29 29 82 165 82 210 0 27 -12 48 -61 105 -80 93
-120 113 -174 90z"/>
<path d="M7710 17919 c-14 -6 -59 -17 -100 -25 -81 -15 -120 -44 -120 -87 0
-30 -27 -135 -44 -172 -68 -146 -116 -210 -221 -296 -67 -55 -170 -113 -245
-139 -19 -7 -78 -19 -130 -27 -80 -13 -111 -14 -198 -3 -57 7 -116 18 -130 26
-15 8 -35 14 -45 14 -37 0 -200 107 -267 174 -24 25 -53 46 -63 46 -25 0 -266
-107 -291 -128 -30 -27 -76 -115 -76 -145 0 -35 17 -68 96 -187 150 -226 449
-551 662 -718 162 -127 181 -126 351 21 31 27 81 69 110 95 75 64 164 153 237
237 34 39 83 95 110 126 44 50 113 143 218 294 140 201 376 699 376 793 0 31
-25 77 -52 96 -26 18 -138 21 -178 5z"/>
</g>
</svg>
