<?xml version="1.0" encoding="UTF-8" standalone="no"?>
<svg
   xmlns:dc="http://purl.org/dc/elements/1.1/"
   xmlns:cc="http://creativecommons.org/ns#"
   xmlns:rdf="http://www.w3.org/1999/02/22-rdf-syntax-ns#"
   xmlns:svg="http://www.w3.org/2000/svg"
   xmlns="http://www.w3.org/2000/svg"
   id="svg14"
   preserveAspectRatio="xMidYMid meet"
   viewBox="370 145 350 350"
   height="720.000000pt"
   width="1094.000000pt"
   version="1.0">
  <metadata
     id="metadata20">
    <rdf:RDF>
      <cc:Work
         rdf:about="">
        <dc:format>image/svg+xml</dc:format>
        <dc:type
           rdf:resource="http://purl.org/dc/dcmitype/StillImage" />
      </cc:Work>
    </rdf:RDF>
  </metadata>
  <defs
     id="defs18" />
  <g
     id="g12"
     stroke="none"
     fill="#2bf"
     transform="translate(0.000000,720.000000) scale(0.100000,-0.100000)">
    <path
       id="path2"
       d="M5165 5719 c-249 -32 -315 -42 -436 -68 -298 -66 -680 -212 -767 -295 -48 -45 -68 -91 -77 -176 -24 -225 4 -582 70 -890 57 -264 216 -661 356 -890 165 -269 274 -406 499 -630 180 -180 280 -264 451 -382 99 -69 121 -78 189 -78 67 0 91 10 185 74 343 235 626 523 872 886 215 318 390 744 458 1115 7 39 18 95 24 125 35 186 34 719 -2 786 -31 59 -92 99 -265 173 -163 69 -207 85 -382 137 -265 79 -604 125 -912 123 -106 -1 -224 -6 -263 -10z m535 -214 c153 -15 308 -36 405 -57 220 -46 625 -189 683 -242 23 -20 23 -21 19 -241 -7 -389 -86 -774 -223 -1086 -19 -42 -34 -80 -34 -83 0 -16 -117 -240 -168 -321 -214 -342 -413 -565 -770 -859 -121 -101 -160 -108 -251 -43 -252 178 -452 374 -652 637 -103 136 -166 236 -252 400 -154 294 -262 611 -312 917 -32 189 -45 333 -45 481 0 190 4 201 98 244 203 91 492 179 722 219 274 47 528 58 780 34z" />
    <path
       id="path4"
       d="M5110 5280 c-207 -29 -335 -58 -534 -122 -151 -49 -195 -68 -222 -93 l-34 -32 0 -169 c0 -171 11 -256 59 -474 20 -92 61 -237 87 -310 31 -85 84 -122 138 -96 114 52 147 67 199 90 l58 25 -6 83 c-25 308 172 586 470 663 75 19 224 19 298 0 153 -40 306 -158 383 -296 l39 -70 55 6 c30 3 98 14 150 25 52 11 109 20 126 20 52 0 129 28 155 57 36 38 47 94 54 263 8 205 3 213 -190 286 -106 40 -264 84 -395 108 -311 59 -630 72 -890 36z" />
    <path
       id="path6"
       d="M5381 4769 c-107 -18 -236 -90 -305 -171 -47 -54 -101 -162 -115 -226 -24 -115 -10 -257 35 -360 32 -72 151 -195 226 -233 102 -51 146 -62 253 -63 132 0 226 32 326 110 74 59 113 108 157 202 36 75 37 81 40 207 3 127 3 132 -29 205 -55 130 -161 241 -277 291 -53 23 -178 50 -225 48 -18 -1 -56 -5 -86 -10z m99 -69 c10 -5 30 -34 43 -64 34 -73 54 -84 157 -86 47 -1 94 -1 105 1 14 3 28 -9 52 -44 31 -46 32 -50 18 -77 -20 -39 -19 -90 2 -120 10 -14 27 -44 39 -68 19 -39 20 -49 9 -95 l-11 -52 -88 -10 c-99 -11 -103 -15 -152 -117 -25 -52 -27 -62 -16 -91 18 -50 16 -54 -39 -72 l-50 -17 -53 59 c-30 32 -69 67 -89 77 -34 19 -35 19 -108 -4 -41 -13 -78 -27 -83 -32 -18 -15 -42 -8 -70 21 -34 35 -29 56 13 66 53 12 71 46 71 139 0 56 -5 88 -15 103 -27 38 -134 103 -171 103 -19 0 -34 4 -34 8 0 24 43 131 55 136 7 2 21 -4 31 -15 23 -25 83 -25 131 1 21 11 43 20 49 20 7 0 26 13 43 29 29 27 31 34 31 98 0 93 7 101 98 112 7 0 22 -3 32 -9z" />
    <path
       id="path8"
       d="M5539 4466 c-2 -3 -33 -9 -69 -15 -76 -12 -97 -30 -123 -104 -30 -84 -32 -112 -8 -150 31 -51 107 -117 133 -117 53 1 151 29 173 50 28 26 65 124 65 171 -1 58 -142 194 -171 165z" />
    <path
       id="path10"
       d="M6325 4235 c-5 -1 -48 -10 -95 -20 -127 -26 -138 -32 -148 -74 -27 -115 -36 -140 -65 -200 -42 -88 -168 -213 -258 -258 -120 -59 -153 -67 -289 -66 -108 0 -135 3 -197 25 -76 27 -174 91 -232 152 -19 20 -40 36 -47 36 -25 0 -216 -89 -241 -111 -40 -38 -65 -96 -58 -132 14 -66 217 -338 374 -501 98 -101 291 -263 337 -282 45 -19 69 -9 173 75 236 189 481 477 643 756 47 80 160 313 171 350 3 11 17 51 31 89 24 66 25 71 9 103 -21 44 -69 70 -108 58z" />
  </g>
</svg>
